<?xml version="1.0" standalone="no"?><!DOCTYPE svg PUBLIC "-//W3C//DTD SVG 1.1//EN" "http://www.w3.org/Graphics/SVG/1.1/DTD/svg11.dtd"><svg t="1656910447265" class="icon" viewBox="0 0 1024 1024" version="1.1" xmlns="http://www.w3.org/2000/svg" p-id="4489" width="32" height="32" xmlns:xlink="http://www.w3.org/1999/xlink"><defs><style type="text/css"></style></defs><path d="M512 989.866667C249.173333 989.866667 34.133333 774.826667 34.133333 512S249.173333 34.133333 512 34.133333s477.866667 215.04 477.866667 477.866667-215.04 477.866667-477.866667 477.866667z m0-904.533334C276.48 85.333333 85.333333 276.48 85.333333 512s191.146667 426.666667 426.666667 426.666667 426.666667-191.146667 426.666667-426.666667S747.52 85.333333 512 85.333333z" fill="#333333" p-id="4490"></path><path d="M829.44 815.786667c-8.533333 0-17.066667-5.12-22.186667-13.653334 0-1.706667-63.146667-109.226667-168.96-105.813333-102.4 5.12-162.133333 98.986667-162.133333 98.986667-6.826667 11.946667-23.893333 15.36-35.84 8.533333-11.946667-6.826667-15.36-22.186667-8.533333-35.84 3.413333-5.12 73.386667-117.76 203.093333-124.586667 139.946667-6.826667 213.333333 126.293333 216.746667 131.413334 6.826667 11.946667 1.706667 27.306667-10.24 34.133333-3.413333 6.826667-6.826667 6.826667-11.946667 6.826667zM500.053333 576.853333c-58.026667 0-104.106667-46.08-104.106666-102.4 0-51.2 40.96-88.746667 80.213333-98.986666 6.826667-1.706667 11.946667-1.706667 18.773333 1.706666l87.04 44.373334c23.893333 6.826667 23.893333 40.96 23.893334 52.906666-1.706667 56.32-47.786667 102.4-105.813334 102.4z m-20.48-148.48c-15.36 6.826667-34.133333 23.893333-34.133333 47.786667 0 29.013333 23.893333 51.2 52.906667 51.2s52.906667-23.893333 52.906666-51.2v-10.24l-71.68-37.546667z m92.16 44.373334z m0 0z m0 0z m0 0z m0 0z" fill="#333333" p-id="4491"></path><path d="M573.44 474.453333c-3.413333 0-8.533333-1.706667-11.946667-3.413333l-225.28-122.88c-11.946667-6.826667-17.066667-22.186667-10.24-34.133333s22.186667-17.066667 34.133334-10.24L585.386667 426.666667c11.946667 6.826667 17.066667 22.186667 10.24 34.133333-3.413333 8.533333-13.653333 13.653333-22.186667 13.653333z" fill="#333333" p-id="4492"></path><path d="M752.64 576.853333c-58.026667 0-104.106667-46.08-104.106667-102.4 0-11.946667 0-46.08 23.893334-52.906666l87.04-44.373334c5.12-3.413333 11.946667-3.413333 18.773333-1.706666 39.253333 10.24 80.213333 49.493333 80.213333 98.986666-1.706667 56.32-47.786667 102.4-105.813333 102.4zM699.733333 465.92v10.24c0 29.013333 23.893333 51.2 52.906667 51.2s52.906667-23.893333 52.906667-51.2c0-22.186667-17.066667-39.253333-34.133334-47.786667L699.733333 465.92z m-20.48 6.826667z m0 0z m0 0z m0 0z m0 0z" fill="#333333" p-id="4493"></path><path d="M679.253333 474.453333c-8.533333 0-17.066667-5.12-22.186666-13.653333-6.826667-11.946667-1.706667-27.306667 10.24-34.133333l225.28-122.88c11.946667-6.826667 27.306667-1.706667 34.133333 10.24 6.826667 11.946667 1.706667 27.306667-10.24 34.133333l-225.28 122.88c-5.12 3.413333-8.533333 3.413333-11.946667 3.413333z" fill="#333333" p-id="4494"></path></svg>